<svg width="14" height="14" viewBox="0 0 14 14" fill="none" xmlns="http://www.w3.org/2000/svg">
<path d="M3.5 2.80001C3.5 2.41341 3.1866 2.10001 2.8 2.10001C2.4134 2.10001 2.1 2.41341 2.1 2.80001V7.8873C1.68154 8.12937 1.4 8.58181 1.4 9.10001C1.4 9.6182 1.68154 10.0706 2.1 10.3127V11.2C2.1 11.5866 2.4134 11.9 2.8 11.9C3.1866 11.9 3.5 11.5866 3.5 11.2V10.3127C3.91846 10.0706 4.2 9.6182 4.2 9.10001C4.2 8.58181 3.91846 8.12937 3.5 7.8873V2.80001Z" fill="#EEEFF1"/>
<path d="M7.7 2.80001C7.7 2.41341 7.3866 2.10001 7 2.10001C6.6134 2.10001 6.3 2.41341 6.3 2.80001V3.6873C5.88154 3.92937 5.6 4.38181 5.6 4.90001C5.6 5.4182 5.88154 5.87064 6.3 6.11271V11.2C6.3 11.5866 6.6134 11.9 7 11.9C7.3866 11.9 7.7 11.5866 7.7 11.2V6.11271C8.11846 5.87064 8.4 5.4182 8.4 4.90001C8.4 4.38181 8.11846 3.92937 7.7 3.6873V2.80001Z" fill="#EEEFF1"/>
<path d="M11.2 2.10001C11.5866 2.10001 11.9 2.41341 11.9 2.80001V7.8873C12.3185 8.12937 12.6 8.58181 12.6 9.10001C12.6 9.6182 12.3185 10.0706 11.9 10.3127V11.2C11.9 11.5866 11.5866 11.9 11.2 11.9C10.8134 11.9 10.5 11.5866 10.5 11.2V10.3127C10.0815 10.0706 9.8 9.6182 9.8 9.10001C9.8 8.58181 10.0815 8.12937 10.5 7.8873V2.80001C10.5 2.41341 10.8134 2.10001 11.2 2.10001Z" fill="#EEEFF1"/>
</svg>
