<svg width="14" height="14" viewBox="0 0 14 14" fill="none" xmlns="http://www.w3.org/2000/svg">
<path fill-rule="evenodd" clip-rule="evenodd" d="M4.2 1.39999C3.8134 1.39999 3.5 1.71339 3.5 2.09999V2.79999H2.8C2.0268 2.79999 1.4 3.4268 1.4 4.19999V11.2C1.4 11.9732 2.0268 12.6 2.8 12.6H11.2C11.9732 12.6 12.6 11.9732 12.6 11.2V4.19999C12.6 3.4268 11.9732 2.79999 11.2 2.79999H10.5V2.09999C10.5 1.71339 10.1866 1.39999 9.8 1.39999C9.4134 1.39999 9.1 1.71339 9.1 2.09999V2.79999H4.9V2.09999C4.9 1.71339 4.5866 1.39999 4.2 1.39999ZM4.2 4.89999C3.8134 4.89999 3.5 5.21339 3.5 5.59999C3.5 5.98659 3.8134 6.29999 4.2 6.29999H9.8C10.1866 6.29999 10.5 5.98659 10.5 5.59999C10.5 5.21339 10.1866 4.89999 9.8 4.89999H4.2Z" fill="#EEEFF1"/>
</svg>
