<svg width="14" height="14" viewBox="0 0 14 14" fill="none" xmlns="http://www.w3.org/2000/svg">
<path d="M4.9 2.10001C4.5134 2.10001 4.2 2.41341 4.2 2.80001C4.2 3.18661 4.5134 3.50001 4.9 3.50001H9.1C9.4866 3.50001 9.8 3.18661 9.8 2.80001C9.8 2.41341 9.4866 2.10001 9.1 2.10001H4.9Z" fill="#EEEFF1"/>
<path d="M2.8 4.90001C2.8 4.51341 3.1134 4.20001 3.5 4.20001H10.5C10.8866 4.20001 11.2 4.51341 11.2 4.90001C11.2 5.28661 10.8866 5.60001 10.5 5.60001H3.5C3.1134 5.60001 2.8 5.28661 2.8 4.90001Z" fill="#EEEFF1"/>
<path d="M1.4 7.70001C1.4 6.92681 2.0268 6.30001 2.8 6.30001H11.2C11.9732 6.30001 12.6 6.92681 12.6 7.70001V10.5C12.6 11.2732 11.9732 11.9 11.2 11.9H2.8C2.0268 11.9 1.4 11.2732 1.4 10.5V7.70001Z" fill="#EEEFF1"/>
</svg>
