<svg width="14" height="14" viewBox="0 0 14 14" fill="none" xmlns="http://www.w3.org/2000/svg">
<path d="M6.3 1.39999C5.5268 1.39999 4.9 2.0268 4.9 2.79999V8.39999C4.9 9.17319 5.5268 9.79999 6.3 9.79999H10.5C11.2732 9.79999 11.9 9.17319 11.9 8.39999V4.48994C11.9 4.11864 11.7525 3.76255 11.4899 3.49999L9.8 1.81004C9.53745 1.54749 9.18135 1.39999 8.81005 1.39999H6.3Z" fill="#EEEFF1"/>
<path d="M2.1 5.59999C2.1 4.8268 2.7268 4.19999 3.5 4.19999V11.2H9.1C9.1 11.9732 8.4732 12.6 7.7 12.6H3.5C2.7268 12.6 2.1 11.9732 2.1 11.2V5.59999Z" fill="#EEEFF1"/>
</svg>
