<svg width="14" height="14" viewBox="0 0 14 14" fill="none" xmlns="http://www.w3.org/2000/svg">
<path fill-rule="evenodd" clip-rule="evenodd" d="M12.6 6.99999C12.6 10.0928 10.0928 12.6 7 12.6C3.90721 12.6 1.4 10.0928 1.4 6.99999C1.4 3.9072 3.90721 1.39999 7 1.39999C10.0928 1.39999 12.6 3.9072 12.6 6.99999ZM7.7 9.79999C7.7 10.1866 7.3866 10.5 7 10.5C6.6134 10.5 6.3 10.1866 6.3 9.79999C6.3 9.41339 6.6134 9.09999 7 9.09999C7.3866 9.09999 7.7 9.41339 7.7 9.79999ZM7 3.49999C6.6134 3.49999 6.3 3.81339 6.3 4.19999V6.99999C6.3 7.38659 6.6134 7.69999 7 7.69999C7.3866 7.69999 7.7 7.38659 7.7 6.99999V4.19999C7.7 3.81339 7.3866 3.49999 7 3.49999Z" fill="#EEEFF1"/>
</svg>
