<svg width="14" height="14" viewBox="0 0 14 14" fill="none" xmlns="http://www.w3.org/2000/svg">
<path d="M7 1.39999C5.067 1.39999 3.5 2.967 3.5 4.89999V6.29999C2.7268 6.29999 2.1 6.9268 2.1 7.69999V11.2C2.1 11.9732 2.7268 12.6 3.5 12.6H10.5C11.2732 12.6 11.9 11.9732 11.9 11.2V7.69999C11.9 6.9268 11.2732 6.29999 10.5 6.29999H4.9V4.89999C4.9 3.7402 5.8402 2.79999 7 2.79999C7.97755 2.79999 8.80072 3.46858 9.03388 4.37447C9.13024 4.74887 9.51187 4.97426 9.88627 4.8779C10.2607 4.78154 10.4861 4.39991 10.3897 4.02551C10.0012 2.51609 8.63182 1.39999 7 1.39999Z" fill="#EEEFF1"/>
</svg>
