<svg width="14" height="14" viewBox="0 0 14 14" fill="none" xmlns="http://www.w3.org/2000/svg">
<path fill-rule="evenodd" clip-rule="evenodd" d="M3.5 6.29999V4.89999C3.5 2.967 5.067 1.39999 7 1.39999C8.93299 1.39999 10.5 2.967 10.5 4.89999V6.29999C11.2732 6.29999 11.9 6.9268 11.9 7.69999V11.2C11.9 11.9732 11.2732 12.6 10.5 12.6H3.5C2.7268 12.6 2.1 11.9732 2.1 11.2V7.69999C2.1 6.9268 2.7268 6.29999 3.5 6.29999ZM9.1 4.89999V6.29999H4.9V4.89999C4.9 3.7402 5.8402 2.79999 7 2.79999C8.1598 2.79999 9.1 3.7402 9.1 4.89999Z" fill="#EEEFF1"/>
</svg>
