<svg width="14" height="14" viewBox="0 0 14 14" fill="none" xmlns="http://www.w3.org/2000/svg">
<path d="M12.19 1.81004C11.6432 1.26331 10.7568 1.26331 10.2101 1.81004L4.9 7.12009V9.1H6.8799L12.19 3.78994C12.7367 3.24321 12.7367 2.35678 12.19 1.81004Z" fill="#EEEFF1"/>
<path fill-rule="evenodd" clip-rule="evenodd" d="M1.4 4.19999C1.4 3.4268 2.0268 2.79999 2.8 2.79999H5.6C5.9866 2.79999 6.3 3.11339 6.3 3.49999C6.3 3.88659 5.9866 4.19999 5.6 4.19999H2.8V11.2H9.8V8.39999C9.8 8.01339 10.1134 7.69999 10.5 7.69999C10.8866 7.69999 11.2 8.01339 11.2 8.39999V11.2C11.2 11.9732 10.5732 12.6 9.8 12.6H2.8C2.0268 12.6 1.4 11.9732 1.4 11.2V4.19999Z" fill="#EEEFF1"/>
</svg>
