<svg width="14" height="14" viewBox="0 0 14 14" fill="none" xmlns="http://www.w3.org/2000/svg">
<path fill-rule="evenodd" clip-rule="evenodd" d="M12.6 6.99999C12.6 10.0928 10.0928 12.6 7 12.6C3.90721 12.6 1.4 10.0928 1.4 6.99999C1.4 3.9072 3.90721 1.39999 7 1.39999C10.0928 1.39999 12.6 3.9072 12.6 6.99999ZM7.00001 4.89999C6.74179 4.89999 6.51532 5.03944 6.39323 5.2505C6.19965 5.58514 5.77144 5.6995 5.4368 5.50592C5.10216 5.31234 4.9878 4.88413 5.18138 4.54949C5.54343 3.92362 6.22183 3.49999 7.00001 3.49999C8.15981 3.49999 9.10001 4.4402 9.10001 5.59999C9.10001 6.51435 8.51565 7.29221 7.70001 7.5805V7.69999C7.70001 8.08659 7.38661 8.39999 7.00001 8.39999C6.61341 8.39999 6.30001 8.08659 6.30001 7.69999V6.99999C6.30001 6.61339 6.61341 6.29999 7.00001 6.29999C7.38661 6.29999 7.70001 5.98659 7.70001 5.59999C7.70001 5.21339 7.38661 4.89999 7.00001 4.89999ZM7 10.5C7.3866 10.5 7.7 10.1866 7.7 9.79999C7.7 9.41339 7.3866 9.09999 7 9.09999C6.6134 9.09999 6.3 9.41339 6.3 9.79999C6.3 10.1866 6.6134 10.5 7 10.5Z" fill="#EEEFF1"/>
</svg>
