<svg width="14" height="14" viewBox="0 0 14 14" fill="none" xmlns="http://www.w3.org/2000/svg">
<path fill-rule="evenodd" clip-rule="evenodd" d="M8.60502 2.30503C8.33166 2.5784 8.33166 3.02161 8.60502 3.29498L10.21 4.90001H6.3C3.5938 4.90001 1.4 7.09381 1.4 9.80001V11.2C1.4 11.5866 1.7134 11.9 2.1 11.9C2.4866 11.9 2.8 11.5866 2.8 11.2V9.80001C2.8 7.86701 4.367 6.30001 6.3 6.30001H10.21L8.60502 7.90503C8.33166 8.1784 8.33166 8.62161 8.60502 8.89498C8.87839 9.16835 9.32161 9.16835 9.59497 8.89498L12.395 6.09498C12.6683 5.82161 12.6683 5.3784 12.395 5.10503L9.59497 2.30503C9.32161 2.03166 8.87839 2.03166 8.60502 2.30503Z" fill="#EEEFF1"/>
</svg>
