<svg width="14" height="14" viewBox="0 0 14 14" fill="none" xmlns="http://www.w3.org/2000/svg">
<path fill-rule="evenodd" clip-rule="evenodd" d="M5.6 2.79999C4.0536 2.79999 2.8 4.0536 2.8 5.59999C2.8 7.14639 4.0536 8.39999 5.6 8.39999C7.1464 8.39999 8.4 7.14639 8.4 5.59999C8.4 4.0536 7.1464 2.79999 5.6 2.79999ZM1.4 5.59999C1.4 3.2804 3.28041 1.39999 5.6 1.39999C7.9196 1.39999 9.8 3.2804 9.8 5.59999C9.8 6.50707 9.51245 7.34699 9.02353 8.03357L12.395 11.405C12.6683 11.6784 12.6683 12.1216 12.395 12.395C12.1216 12.6683 11.6784 12.6683 11.405 12.395L8.03358 9.02352C7.347 9.51244 6.50708 9.79999 5.6 9.79999C3.28041 9.79999 1.4 7.91959 1.4 5.59999Z" fill="#EEEFF1"/>
</svg>
