<svg width="14" height="14" viewBox="0 0 14 14" fill="none" xmlns="http://www.w3.org/2000/svg">
<path fill-rule="evenodd" clip-rule="evenodd" d="M6.3 1.39999C6.03486 1.39999 5.79247 1.5498 5.6739 1.78694L5.16738 2.79999H2.8C2.4134 2.79999 2.1 3.11339 2.1 3.49999C2.1 3.88659 2.4134 4.19999 2.8 4.19999L2.8 11.2C2.8 11.9732 3.4268 12.6 4.2 12.6H9.8C10.5732 12.6 11.2 11.9732 11.2 11.2V4.19999C11.5866 4.19999 11.9 3.88659 11.9 3.49999C11.9 3.11339 11.5866 2.79999 11.2 2.79999H8.83262L8.3261 1.78694C8.20752 1.5498 7.96514 1.39999 7.7 1.39999H6.3ZM4.9 5.59999C4.9 5.21339 5.2134 4.89999 5.6 4.89999C5.9866 4.89999 6.3 5.21339 6.3 5.59999V9.79999C6.3 10.1866 5.9866 10.5 5.6 10.5C5.2134 10.5 4.9 10.1866 4.9 9.79999V5.59999ZM8.4 4.89999C8.0134 4.89999 7.7 5.21339 7.7 5.59999V9.79999C7.7 10.1866 8.0134 10.5 8.4 10.5C8.7866 10.5 9.1 10.1866 9.1 9.79999V5.59999C9.1 5.21339 8.7866 4.89999 8.4 4.89999Z" fill="#EEEFF1"/>
</svg>
