<svg width="14" height="14" viewBox="0 0 14 14" fill="none" xmlns="http://www.w3.org/2000/svg">
<path fill-rule="evenodd" clip-rule="evenodd" d="M8.4 9.1C8.0134 9.1 7.7 9.4134 7.7 9.8C7.7 10.1866 8.0134 10.5 8.4 10.5H11.9C12.2866 10.5 12.6 10.1866 12.6 9.8V6.3C12.6 5.9134 12.2866 5.6 11.9 5.6C11.5134 5.6 11.2 5.9134 11.2 6.3V8.11005L8.19498 5.10503C7.92161 4.83166 7.47839 4.83166 7.20503 5.10503L5.6 6.71005L2.59498 3.70503C2.32161 3.43166 1.87839 3.43166 1.60503 3.70503C1.33166 3.97839 1.33166 4.42161 1.60503 4.69497L5.10503 8.19497C5.37839 8.46834 5.82161 8.46834 6.09498 8.19497L7.7 6.58995L10.2101 9.1H8.4Z" fill="#EEEFF1"/>
</svg>
