<svg width="14" height="14" viewBox="0 0 14 14" fill="none" xmlns="http://www.w3.org/2000/svg">
<path fill-rule="evenodd" clip-rule="evenodd" d="M5.39498 2.30503C5.66834 2.5784 5.66834 3.02161 5.39498 3.29498L3.78995 4.90001H7.7C10.4062 4.90001 12.6 7.09381 12.6 9.80001V11.2C12.6 11.5866 12.2866 11.9 11.9 11.9C11.5134 11.9 11.2 11.5866 11.2 11.2V9.80001C11.2 7.86701 9.633 6.30001 7.7 6.30001H3.78995L5.39498 7.90503C5.66834 8.1784 5.66834 8.62161 5.39498 8.89498C5.12161 9.16835 4.67839 9.16835 4.40503 8.89498L1.60503 6.09498C1.33166 5.82161 1.33166 5.3784 1.60503 5.10503L4.40503 2.30503C4.67839 2.03166 5.12161 2.03166 5.39498 2.30503Z" fill="#EEEFF1"/>
</svg>
