<svg width="14" height="14" viewBox="0 0 14 14" fill="none" xmlns="http://www.w3.org/2000/svg">
<path d="M1.4 2.80001C1.4 2.41341 1.7134 2.10001 2.1 2.10001H3.5C3.8866 2.10001 4.2 2.41341 4.2 2.80001V11.2C4.2 11.5866 3.8866 11.9 3.5 11.9H2.1C1.7134 11.9 1.4 11.5866 1.4 11.2V2.80001Z" fill="#EEEFF1"/>
<path d="M5.6 2.80001C5.6 2.41341 5.9134 2.10001 6.3 2.10001H7.7C8.0866 2.10001 8.4 2.41341 8.4 2.80001V11.2C8.4 11.5866 8.0866 11.9 7.7 11.9H6.3C5.9134 11.9 5.6 11.5866 5.6 11.2V2.80001Z" fill="#EEEFF1"/>
<path d="M10.5 2.10001C10.1134 2.10001 9.8 2.41341 9.8 2.80001V11.2C9.8 11.5866 10.1134 11.9 10.5 11.9H11.9C12.2866 11.9 12.6 11.5866 12.6 11.2V2.80001C12.6 2.41341 12.2866 2.10001 11.9 2.10001H10.5Z" fill="#EEEFF1"/>
</svg>
