<svg width="14" height="14" viewBox="0 0 14 14" fill="none" xmlns="http://www.w3.org/2000/svg">
<path d="M3.5 2.10001C2.7268 2.10001 2.1 2.72681 2.1 3.50001V4.90001C2.1 5.6732 2.7268 6.30001 3.5 6.30001H4.9C5.6732 6.30001 6.3 5.6732 6.3 4.90001V3.50001C6.3 2.72681 5.6732 2.10001 4.9 2.10001H3.5Z" fill="#EEEFF1"/>
<path d="M3.5 7.70001C2.7268 7.70001 2.1 8.32681 2.1 9.10001V10.5C2.1 11.2732 2.7268 11.9 3.5 11.9H4.9C5.6732 11.9 6.3 11.2732 6.3 10.5V9.10001C6.3 8.32681 5.6732 7.70001 4.9 7.70001H3.5Z" fill="#EEEFF1"/>
<path d="M7.7 3.50001C7.7 2.72681 8.3268 2.10001 9.1 2.10001H10.5C11.2732 2.10001 11.9 2.72681 11.9 3.50001V4.90001C11.9 5.6732 11.2732 6.30001 10.5 6.30001H9.1C8.3268 6.30001 7.7 5.6732 7.7 4.90001V3.50001Z" fill="#EEEFF1"/>
<path d="M9.8 7.70001C10.1866 7.70001 10.5 8.01341 10.5 8.40001V9.10001H11.2C11.5866 9.10001 11.9 9.41341 11.9 9.80001C11.9 10.1866 11.5866 10.5 11.2 10.5H10.5V11.2C10.5 11.5866 10.1866 11.9 9.8 11.9C9.4134 11.9 9.1 11.5866 9.1 11.2V10.5H8.4C8.0134 10.5 7.7 10.1866 7.7 9.80001C7.7 9.41341 8.0134 9.10001 8.4 9.10001H9.1V8.40001C9.1 8.01341 9.4134 7.70001 9.8 7.70001Z" fill="#EEEFF1"/>
</svg>
